# xmcd
#
# Track frame offsets:
#	150
#	10867
#	21175
#	32785
#	44302
#	57095
#	67202
#	78380
#	88645
#	99770
#	115005
#	126865
#	136147
#	147490
#	158530
#	167837
#	177117
#	188715
#	201340
#	211605
#
# Disc length: 2945 seconds
#
# Revision: 6
# Processed by: cddbd v1.5.2PL0 Copyright (c) Steve Scherf et al.
# Submitted via: VUPlayer 2.49
#
DISCID=070b7f14
DTITLE=Jim Reeves - 20 Golden Hits
DYEAR=1988
DGENRE=Country
TTITLE0=He'll Have To Go
TTITLE1=Am I Losing You
TTITLE2=Welcome To My Word
TTITLE3=I Love You Because
TTITLE4=Four Walls
TTITLE5=Blue Boy
TTITLE6=Anne Marie
TTITLE7=I'm Gettin'better
TTITLE8=Am I That Easy To Forget
TTITLE9=The Blizzard
TTITLE10=Mexican Joe
TTITLE11=I Know One
TTITLE12=Adios Amigo
TTITLE13=How Can I Write On Paper
TTITLE14=I'm Gonna Change Everyting
TTITLE15=What Would You Do
TTITLE16=I Missed Me
TTITLE17=Bimbo
TTITLE18=Losing Your Love
TTITLE19=Billy Bayou
EXTD=
EXTT0=
EXTT1=
EXTT2=
EXTT3=
EXTT4=
EXTT5=
EXTT6=
EXTT7=
EXTT8=
EXTT9=
EXTT10=
EXTT11=
EXTT12=
EXTT13=
EXTT14=
EXTT15=
EXTT16=
EXTT17=
EXTT18=
EXTT19=
PLAYORDER=
